<svg width="1577" height="1208" viewBox="0 0 1577 1208" fill="none" xmlns="http://www.w3.org/2000/svg">
<path d="M1532.67 665.453H1466.69C1455.09 665.453 1443.96 660.844 1435.76 652.641C1427.55 644.438 1422.94 633.307 1422.94 621.703V570.755C1422.94 559.151 1427.55 548.026 1435.76 539.818C1443.96 531.615 1455.09 527.006 1466.69 527.006H1532.67C1544.27 527.006 1555.4 531.615 1563.6 539.818C1571.81 548.026 1576.42 559.151 1576.42 570.755V621.703C1576.42 633.308 1571.81 644.438 1563.6 652.641C1555.4 660.844 1544.27 665.453 1532.67 665.453ZM1466.69 564.505C1463.24 564.505 1460.44 567.302 1460.44 570.755V621.703C1460.44 623.365 1461.1 624.953 1462.27 626.125C1463.44 627.297 1465.03 627.953 1466.69 627.953H1532.67C1534.32 627.953 1535.91 627.297 1537.08 626.125C1538.26 624.953 1538.92 623.365 1538.92 621.703V570.755C1538.92 569.099 1538.26 567.511 1537.08 566.333C1535.91 565.162 1534.32 564.505 1532.67 564.505H1466.69Z" fill="url(#paint0_linear_4_21)"/>
<path d="M1353.6 741.48H1287.63C1276.02 741.48 1264.89 736.871 1256.69 728.667C1248.49 720.464 1243.88 709.334 1243.88 697.73V595.667C1243.88 584.063 1248.49 572.938 1256.69 564.735C1264.89 556.527 1276.02 551.918 1287.63 551.918H1353.6C1365.2 551.918 1376.33 556.527 1384.54 564.735C1392.74 572.939 1397.35 584.063 1397.35 595.667V697.73C1397.35 709.334 1392.74 720.465 1384.54 728.667C1376.33 736.871 1365.2 741.48 1353.6 741.48ZM1287.63 589.413C1284.17 589.413 1281.38 592.21 1281.38 595.663V697.726C1281.38 699.382 1282.03 700.976 1283.2 702.148C1284.38 703.32 1285.97 703.976 1287.63 703.976H1353.6C1355.26 703.976 1356.84 703.32 1358.02 702.148C1359.19 700.976 1359.85 699.382 1359.85 697.726V595.663C1359.85 594.007 1359.19 592.419 1358.02 591.247C1356.84 590.075 1355.26 589.413 1353.6 589.413H1287.63Z" fill="url(#paint1_linear_4_21)"/>
<path d="M1174.64 886.027H1108.66C1097.05 886.027 1085.92 881.417 1077.72 873.209C1069.52 865.006 1064.91 853.881 1064.91 842.277V618.53C1064.91 606.926 1069.52 595.796 1077.72 587.593C1085.92 579.39 1097.05 574.78 1108.66 574.78H1174.65H1174.64C1186.24 574.796 1197.36 579.411 1205.56 587.614C1213.76 595.812 1218.37 606.931 1218.39 618.531V842.278C1218.37 853.877 1213.76 864.991 1205.56 873.195C1197.36 881.398 1186.24 886.013 1174.64 886.028L1174.64 886.027ZM1108.65 612.28H1108.66C1105.2 612.28 1102.41 615.077 1102.41 618.53V842.277C1102.41 843.933 1103.06 845.522 1104.23 846.693C1105.41 847.865 1107 848.527 1108.66 848.527H1174.65H1174.64C1176.3 848.527 1177.89 847.865 1179.06 846.693C1180.23 845.522 1180.89 843.933 1180.89 842.277V618.53C1180.89 616.874 1180.23 615.28 1179.06 614.108C1177.89 612.936 1176.3 612.28 1174.64 612.28H1108.65Z" fill="url(#paint2_linear_4_21)"/>
<path d="M816.653 1042.52H750.68C739.076 1042.52 727.945 1037.91 719.743 1029.7C711.54 1021.5 706.93 1010.37 706.93 998.77V574.104C706.93 562.499 711.539 551.369 719.743 543.166C727.946 534.963 739.076 530.354 750.68 530.354H816.653C828.257 530.354 839.383 534.963 847.585 543.166C855.794 551.369 860.403 562.5 860.403 574.104V998.77C860.403 1010.37 855.794 1021.5 847.585 1029.7C839.382 1037.91 828.257 1042.52 816.653 1042.52ZM750.68 567.853C747.227 567.853 744.43 570.65 744.43 574.103V998.77C744.43 1000.43 745.086 1002.01 746.258 1003.19C747.43 1004.36 749.019 1005.02 750.68 1005.02H816.653C818.31 1005.02 819.898 1004.36 821.07 1003.19C822.242 1002.01 822.903 1000.43 822.903 998.77V574.103C822.903 572.442 822.242 570.853 821.07 569.681C819.898 568.51 818.31 567.853 816.653 567.853H750.68Z" fill="url(#paint3_linear_4_21)"/>
<path d="M816.653 480.24H750.68C739.076 480.24 727.945 475.631 719.743 467.422C711.54 459.219 706.93 448.089 706.93 436.49V382.001C706.93 370.397 711.539 359.272 719.743 351.064C727.946 342.861 739.076 338.251 750.68 338.251H816.653C828.257 338.251 839.383 342.86 847.585 351.064C855.794 359.272 860.403 370.397 860.403 382.001V436.537C860.387 448.131 855.773 459.245 847.57 467.444C839.367 475.636 828.248 480.24 816.653 480.24ZM750.68 375.751C747.227 375.751 744.43 378.548 744.43 382.001V436.537C744.43 438.193 745.086 439.787 746.258 440.959C747.43 442.13 749.019 442.787 750.68 442.787H816.653C818.31 442.787 819.898 442.13 821.07 440.959C822.242 439.787 822.903 438.193 822.903 436.537V382.001C822.903 380.344 822.242 378.756 821.07 377.579C819.898 376.407 818.31 375.751 816.653 375.751H750.68Z" fill="url(#paint4_linear_4_21)"/>
<path d="M637.653 377.493H571.68C560.076 377.493 548.945 372.884 540.743 364.676C532.54 356.473 527.93 345.342 527.93 333.744V296.244C527.93 284.639 532.539 273.509 540.743 265.306C548.946 257.103 560.076 252.494 571.68 252.494H637.653C649.257 252.494 660.383 257.103 668.585 265.306C676.794 273.509 681.403 284.64 681.403 296.244V333.744C681.403 345.343 676.794 356.473 668.585 364.676C660.382 372.884 649.257 377.493 637.653 377.493ZM571.68 289.993C568.227 289.993 565.43 292.79 565.43 296.243V333.743C565.43 335.4 566.086 336.988 567.258 338.16C568.43 339.332 570.019 339.993 571.68 339.993H637.653C639.31 339.993 640.898 339.332 642.07 338.16C643.242 336.988 643.903 335.4 643.903 333.743V296.243C643.903 294.582 643.242 292.993 642.07 291.821C640.898 290.65 639.31 289.993 637.653 289.993H571.68Z" fill="url(#paint5_linear_4_21)"/>
<path d="M816.653 118.253H750.68C739.076 118.253 727.945 113.644 719.743 105.441C711.54 97.2325 706.93 86.1074 706.93 74.5034V44.5768C706.93 32.9778 711.539 21.8474 719.743 13.6448C727.946 5.43649 739.076 0.827026 750.68 0.827026H816.653C828.257 0.827026 839.383 5.43636 847.585 13.6448C855.794 21.8478 860.403 32.9781 860.403 44.5768V74.5034C860.403 86.1076 855.794 97.2328 847.585 105.441C839.382 113.644 828.257 118.253 816.653 118.253ZM750.68 38.3413C747.227 38.3413 744.43 41.1382 744.43 44.5913V74.5033C744.43 76.1596 745.086 77.7481 746.258 78.9252C747.43 80.097 749.019 80.7533 750.68 80.7533H816.653C818.31 80.7533 819.898 80.097 821.07 78.9252C822.242 77.7481 822.903 76.1596 822.903 74.5033V44.5766C822.903 42.9204 822.242 41.3318 821.07 40.16C819.898 38.9881 818.31 38.3266 816.653 38.3266L750.68 38.3413Z" fill="url(#paint6_linear_4_21)"/>
<path d="M1353.6 882.693H1287.63C1276.02 882.693 1264.89 878.084 1256.69 869.881C1248.49 861.673 1243.88 850.547 1243.88 838.943V809.042C1243.88 797.438 1248.49 786.313 1256.69 778.11C1264.89 769.902 1276.02 765.292 1287.63 765.292H1353.6C1365.2 765.292 1376.33 769.902 1384.54 778.11C1392.74 786.313 1397.35 797.438 1397.35 809.042V838.943C1397.35 850.548 1392.74 861.673 1384.54 869.881C1376.33 878.084 1365.2 882.693 1353.6 882.693ZM1287.63 802.792C1284.17 802.792 1281.38 805.589 1281.38 809.042V838.943C1281.38 840.6 1282.03 842.188 1283.2 843.365C1284.38 844.537 1285.97 845.193 1287.63 845.193H1353.6C1355.26 845.193 1356.84 844.537 1358.02 843.365C1359.19 842.188 1359.85 840.6 1359.85 838.943V809.042C1359.85 807.386 1359.19 805.797 1358.02 804.625C1356.84 803.453 1355.26 802.792 1353.6 802.792H1287.63Z" fill="url(#paint7_linear_4_21)"/>
<path d="M458.68 429.907H392.691C381.087 429.907 369.961 425.297 361.753 417.089C353.55 408.886 348.941 397.761 348.941 386.157V356.256C348.941 344.651 353.55 333.526 361.753 325.318C369.962 317.115 381.087 312.506 392.691 312.506H458.68C470.279 312.506 481.409 317.115 489.612 325.318C497.82 333.527 502.43 344.652 502.43 356.256V386.157C502.43 397.761 497.82 408.886 489.612 417.089C481.409 425.297 470.279 429.907 458.68 429.907ZM392.691 350.005C389.238 350.005 386.441 352.802 386.441 356.255V386.157C386.441 387.813 387.097 389.401 388.269 390.573C389.446 391.745 391.034 392.407 392.691 392.407H458.68C460.336 392.407 461.925 391.745 463.097 390.573C464.269 389.401 464.93 387.813 464.93 386.157V356.255C464.93 354.599 464.269 353.011 463.097 351.833C461.925 350.662 460.336 350.005 458.68 350.005H392.691Z" fill="url(#paint8_linear_4_21)"/>
<path d="M284.773 901.613H218.747C207.142 901.613 196.017 897.004 187.809 888.796C179.606 880.593 174.997 869.462 174.997 857.864V827.946C174.997 816.347 179.606 805.217 187.809 797.014C196.018 788.806 207.143 784.197 218.747 784.197H284.736C296.335 784.197 307.465 788.806 315.668 797.014C323.876 805.217 328.486 816.348 328.486 827.946V857.864C328.486 869.457 323.882 880.582 315.684 888.785C307.486 896.988 296.366 901.603 284.772 901.613L284.773 901.613ZM218.747 821.696C215.294 821.696 212.497 824.498 212.497 827.946V857.863C212.497 859.52 213.153 861.108 214.325 862.28C215.502 863.452 217.09 864.113 218.747 864.113H284.736C286.392 864.113 287.981 863.452 289.153 862.28C290.325 861.108 290.986 859.52 290.986 857.863V827.946C290.986 826.29 290.325 824.701 289.153 823.529C287.981 822.357 286.392 821.696 284.736 821.696H218.747Z" fill="url(#paint9_linear_4_21)"/>
<path d="M637.653 1096.39H571.68C560.076 1096.39 548.945 1091.78 540.743 1083.57C532.54 1075.37 527.93 1064.24 527.93 1052.64V1022.72C527.93 1011.12 532.539 999.995 540.743 991.793C548.946 983.585 560.076 978.975 571.68 978.975H637.653C649.257 978.975 660.383 983.584 668.585 991.793C676.794 999.996 681.403 1011.12 681.403 1022.72V1052.64C681.403 1064.24 676.794 1075.37 668.585 1083.57C660.382 1091.78 649.257 1096.39 637.653 1096.39ZM571.68 1016.47C568.227 1016.47 565.43 1019.27 565.43 1022.72V1052.64C565.43 1054.3 566.086 1055.89 567.258 1057.06C568.43 1058.23 570.019 1058.89 571.68 1058.89H637.653C639.31 1058.89 640.898 1058.23 642.07 1057.06C643.242 1055.89 643.903 1054.3 643.903 1052.64V1022.72C643.903 1021.07 643.242 1019.48 642.07 1018.31C640.898 1017.14 639.31 1016.47 637.653 1016.47H571.68Z" fill="url(#paint10_linear_4_21)"/>
<path d="M995.64 986.28H929.667C918.063 986.28 906.937 981.671 898.735 973.467C890.526 965.264 885.917 954.134 885.917 942.53V887.994C885.917 876.39 890.526 865.265 898.735 857.057C906.938 848.854 918.063 844.244 929.667 844.244H995.64C1007.24 844.244 1018.37 848.854 1026.58 857.057C1034.78 865.265 1039.39 876.39 1039.39 887.994V942.53C1039.39 954.134 1034.78 965.265 1026.58 973.467C1018.37 981.67 1007.24 986.28 995.64 986.28ZM929.667 881.744C926.214 881.744 923.417 884.541 923.417 887.994V942.53C923.417 944.186 924.078 945.78 925.25 946.952C926.422 948.124 928.01 948.78 929.667 948.78H995.64C997.301 948.78 998.89 948.124 1000.06 946.952C1001.23 945.78 1001.89 944.186 1001.89 942.53V887.994C1001.89 886.338 1001.23 884.749 1000.06 883.572C998.89 882.4 997.301 881.744 995.64 881.744H929.667Z" fill="url(#paint11_linear_4_21)"/>
<path d="M1174.64 546.4H1108.66C1097.05 546.4 1085.92 541.791 1077.72 533.582C1069.52 525.379 1064.91 514.254 1064.91 502.65V448.098C1064.91 436.494 1069.52 425.369 1077.72 417.166C1085.92 408.958 1097.05 404.349 1108.66 404.349H1174.65H1174.64C1186.24 404.364 1197.36 408.979 1205.56 417.182C1213.76 425.385 1218.37 436.499 1218.39 448.099V502.651C1218.37 514.25 1213.76 525.365 1205.56 533.569C1197.36 541.772 1186.24 546.386 1174.64 546.402L1174.64 546.4ZM1108.65 441.848H1108.66C1105.2 441.848 1102.41 444.645 1102.41 448.098V502.65C1102.41 504.306 1103.06 505.895 1104.23 507.067C1105.41 508.239 1107 508.9 1108.66 508.9H1174.65H1174.64C1176.3 508.9 1177.89 508.239 1179.06 507.067C1180.23 505.895 1180.89 504.306 1180.89 502.65V448.098C1180.89 446.442 1180.23 444.853 1179.06 443.681C1177.89 442.509 1176.3 441.848 1174.64 441.848H1108.65Z" fill="url(#paint12_linear_4_21)"/>
<path d="M816.653 288.067H750.68C739.076 288.067 727.945 283.457 719.743 275.254C711.54 267.051 706.93 255.921 706.93 244.317V189.77C706.93 178.166 711.539 167.035 719.743 158.833C727.946 150.63 739.076 146.02 750.68 146.02H816.653C828.257 146.02 839.383 150.63 847.585 158.833C855.794 167.036 860.403 178.166 860.403 189.77V244.322V244.317C860.403 255.921 855.794 267.052 847.585 275.254C839.382 283.457 828.257 288.067 816.653 288.067ZM750.68 183.515V183.52C747.227 183.52 744.43 186.317 744.43 189.77V244.322V244.317C744.43 245.978 745.086 247.567 746.258 248.739C747.43 249.91 749.019 250.567 750.68 250.567H816.653C818.31 250.567 819.898 249.91 821.07 248.739C822.242 247.567 822.903 245.978 822.903 244.317V189.77C822.903 188.114 822.242 186.52 821.07 185.348C819.898 184.176 818.31 183.52 816.653 183.52L750.68 183.515Z" fill="url(#paint13_linear_4_21)"/>
<path d="M816.653 1207.33H750.68C739.076 1207.33 727.945 1202.72 719.743 1194.52C711.54 1186.32 706.93 1175.19 706.93 1163.58V1136.41V1136.41C706.93 1124.81 711.539 1113.68 719.743 1105.47C727.946 1097.27 739.076 1092.66 750.68 1092.66H816.653C828.257 1092.66 839.383 1097.27 847.585 1105.47C855.794 1113.68 860.403 1124.81 860.403 1136.41V1163.59V1163.58C860.403 1175.19 855.794 1186.32 847.585 1194.52C839.382 1202.72 828.257 1207.33 816.653 1207.33ZM750.68 1130.16V1130.16C747.227 1130.16 744.43 1132.96 744.43 1136.41V1163.59V1163.58C744.43 1165.24 745.086 1166.83 746.258 1168.01C747.43 1169.18 749.019 1169.83 750.68 1169.83H816.653C818.31 1169.83 819.898 1169.18 821.07 1168.01C822.242 1166.83 822.903 1165.24 822.903 1163.58V1136.41V1136.41C822.903 1134.75 822.242 1133.16 821.07 1131.99C819.898 1130.82 818.31 1130.16 816.653 1130.16L750.68 1130.16Z" fill="url(#paint14_linear_4_21)"/>
<path d="M637.653 937.56H571.68C560.076 937.56 548.945 932.951 540.743 924.747C532.54 916.539 527.93 905.414 527.93 893.81V475.117C527.93 463.513 532.539 452.387 540.743 444.179C548.946 435.976 560.076 431.367 571.68 431.367H637.653C649.257 431.367 660.383 435.976 668.585 444.179C676.794 452.388 681.403 463.513 681.403 475.117V893.81C681.403 905.414 676.794 916.539 668.585 924.747C660.382 932.951 649.257 937.56 637.653 937.56ZM571.68 468.867C568.227 468.867 565.43 471.664 565.43 475.117V893.81C565.43 895.466 566.086 897.055 567.258 898.232C568.43 899.404 570.019 900.06 571.68 900.06H637.653C639.31 900.06 640.898 899.404 642.07 898.232C643.242 897.055 643.903 895.466 643.903 893.81V475.117C643.903 473.46 643.242 471.872 642.07 470.695C640.898 469.523 639.31 468.867 637.653 468.867H571.68Z" fill="url(#paint15_linear_4_21)"/>
<path d="M458.68 821.133H392.691C381.087 821.133 369.961 816.524 361.753 808.321C353.55 800.118 348.941 788.987 348.941 777.383V511.583C348.941 499.979 353.55 488.849 361.753 480.646C369.962 472.443 381.087 467.834 392.691 467.834H458.68C470.279 467.834 481.409 472.443 489.612 480.646C497.82 488.849 502.43 499.979 502.43 511.583V777.383C502.43 788.988 497.82 800.118 489.612 808.321C481.409 816.524 470.279 821.133 458.68 821.133ZM392.691 505.333C389.238 505.333 386.441 508.13 386.441 511.583V777.383C386.441 779.045 387.097 780.633 388.269 781.805C389.446 782.977 391.034 783.633 392.691 783.633H458.68C460.336 783.633 461.925 782.977 463.097 781.805C464.269 780.633 464.93 779.045 464.93 777.383V511.583C464.93 509.927 464.269 508.333 463.097 507.161C461.925 505.99 460.336 505.333 458.68 505.333H392.691Z" fill="url(#paint16_linear_4_21)"/>
<path d="M284.773 735.747H218.747C207.142 735.747 196.017 731.137 187.809 722.934C179.606 714.726 174.997 703.601 174.997 691.997V524.904C174.997 513.299 179.606 502.169 187.809 493.966C196.018 485.763 207.143 481.154 218.747 481.154H284.736C296.335 481.154 307.465 485.763 315.668 493.966C323.876 502.169 328.486 513.3 328.486 524.904V691.997C328.486 703.596 323.882 714.715 315.684 722.918C307.486 731.121 296.366 735.736 284.772 735.746L284.773 735.747ZM218.747 518.653C215.294 518.653 212.497 521.45 212.497 524.903V691.997C212.497 693.653 213.153 695.241 214.325 696.419C215.502 697.59 217.09 698.247 218.747 698.247H284.736C286.392 698.247 287.981 697.59 289.153 696.419C290.325 695.241 290.986 693.653 290.986 691.997V524.903C290.986 523.247 290.325 521.653 289.153 520.481C287.981 519.31 286.392 518.653 284.736 518.653H218.747Z" fill="url(#paint17_linear_4_21)"/>
<path d="M110.161 703.253H44.188C32.5838 703.253 21.4586 698.644 13.2506 690.441C5.04758 682.233 0.43811 671.108 0.43811 659.504V574.129C0.43811 562.525 5.04744 551.399 13.2506 543.191C21.4589 534.988 32.584 530.379 44.188 530.379H110.161C121.765 530.379 132.896 534.988 141.099 543.191C149.302 551.4 153.911 562.525 153.911 574.129V659.504C153.911 671.108 149.302 682.233 141.099 690.441C132.896 698.644 121.765 703.253 110.161 703.253ZM44.188 567.867C40.7349 567.867 37.938 570.664 37.938 574.117V659.502C37.938 661.158 38.5942 662.747 39.7661 663.924C40.9432 665.096 42.5317 665.752 44.188 665.752H110.161C111.818 665.752 113.411 665.096 114.583 663.924C115.755 662.747 116.411 661.158 116.411 659.502V574.127C116.411 572.471 115.755 570.883 114.583 569.705C113.411 568.534 111.818 567.877 110.161 567.877L44.188 567.867Z" fill="url(#paint18_linear_4_21)"/>
<path d="M995.64 821.133H929.667C918.063 821.133 906.937 816.524 898.735 808.321C890.526 800.118 885.917 788.987 885.917 777.383V373.863C885.917 362.259 890.526 351.129 898.735 342.926C906.938 334.723 918.063 330.114 929.667 330.114H995.64C1007.24 330.114 1018.37 334.723 1026.58 342.926C1034.78 351.129 1039.39 362.259 1039.39 373.863V777.383C1039.39 788.988 1034.78 800.118 1026.58 808.321C1018.37 816.524 1007.24 821.133 995.64 821.133ZM929.667 367.613C926.214 367.613 923.417 370.41 923.417 373.863V777.383C923.417 779.045 924.078 780.633 925.25 781.805C926.422 782.977 928.01 783.633 929.667 783.633H995.64C997.301 783.633 998.89 782.977 1000.06 781.805C1001.23 780.633 1001.89 779.045 1001.89 777.383V373.863C1001.89 372.202 1001.23 370.613 1000.06 369.441C998.89 368.27 997.301 367.613 995.64 367.613H929.667Z" fill="url(#paint19_linear_4_21)"/>
<path d="M995.64 299.013H929.667C918.063 299.013 906.937 294.404 898.735 286.201C890.526 277.998 885.917 266.867 885.917 255.263V221.263C885.917 209.665 890.526 198.534 898.735 190.331C906.938 182.123 918.063 177.514 929.667 177.514H995.64C1007.24 177.514 1018.37 182.123 1026.58 190.331C1034.78 198.535 1039.39 209.665 1039.39 221.263V255.263C1039.39 266.868 1034.78 277.998 1026.58 286.201C1018.37 294.404 1007.24 299.013 995.64 299.013ZM929.667 215.013C926.214 215.013 923.417 217.815 923.417 221.263V255.263C923.417 256.925 924.078 258.513 925.25 259.685C926.422 260.857 928.01 261.513 929.667 261.513H995.64C997.301 261.513 998.89 260.857 1000.06 259.685C1001.23 258.513 1001.89 256.925 1001.89 255.263V221.263C1001.89 219.607 1001.23 218.019 1000.06 216.847C998.89 215.675 997.301 215.013 995.64 215.013H929.667Z" fill="url(#paint20_linear_4_21)"/>
<path d="M995.64 1117.8H929.667C918.063 1117.8 906.937 1113.19 898.735 1104.98C890.526 1096.78 885.917 1085.65 885.917 1074.05V1044.13C885.917 1032.53 890.526 1021.4 898.735 1013.2C906.938 1004.99 918.063 1000.38 929.667 1000.38H995.64C1007.24 1000.38 1018.37 1004.99 1026.58 1013.2C1034.78 1021.4 1039.39 1032.53 1039.39 1044.13V1074.05C1039.39 1085.65 1034.78 1096.78 1026.58 1104.98C1018.37 1113.19 1007.24 1117.8 995.64 1117.8ZM929.667 1037.89V1037.88C926.214 1037.88 923.417 1040.68 923.417 1044.13V1074.05C923.417 1075.71 924.078 1077.29 925.25 1078.47C926.422 1079.64 928.01 1080.3 929.667 1080.3H995.64C997.301 1080.3 998.89 1079.64 1000.06 1078.47C1001.23 1077.29 1001.89 1075.71 1001.89 1074.05V1044.13C1001.89 1042.48 1001.23 1040.89 1000.06 1039.72C998.89 1038.54 997.301 1037.88 995.64 1037.88L929.667 1037.89Z" fill="url(#paint21_linear_4_21)"/>
<defs>
<linearGradient id="paint0_linear_4_21" x1="1538.14" y1="520.954" x2="1439.18" y2="649.129" gradientUnits="userSpaceOnUse">
<stop stop-color="#00D1FF"/>
<stop offset="1" stop-color="#00E5FF"/>
</linearGradient>
<linearGradient id="paint1_linear_4_21" x1="1359.08" y1="543.632" x2="1219.23" y2="675.908" gradientUnits="userSpaceOnUse">
<stop stop-color="#00D1FF"/>
<stop offset="1" stop-color="#00E5FF"/>
</linearGradient>
<linearGradient id="paint2_linear_4_21" x1="1180.12" y1="561.176" x2="981.168" y2="675.792" gradientUnits="userSpaceOnUse">
<stop stop-color="#00D1FF"/>
<stop offset="1" stop-color="#00E5FF"/>
</linearGradient>
<linearGradient id="paint3_linear_4_21" x1="822.132" y1="507.967" x2="586.099" y2="590.599" gradientUnits="userSpaceOnUse">
<stop stop-color="#00D1FF"/>
<stop offset="1" stop-color="#00E5FF"/>
</linearGradient>
<linearGradient id="paint4_linear_4_21" x1="822.132" y1="332.045" x2="720.012" y2="461" gradientUnits="userSpaceOnUse">
<stop stop-color="#00D1FF"/>
<stop offset="1" stop-color="#00E5FF"/>
</linearGradient>
<linearGradient id="paint5_linear_4_21" x1="643.132" y1="247.03" x2="556.474" y2="371.334" gradientUnits="userSpaceOnUse">
<stop stop-color="#00D1FF"/>
<stop offset="1" stop-color="#00E5FF"/>
</linearGradient>
<linearGradient id="paint6_linear_4_21" x1="822.132" y1="-4.30561" x2="742.6" y2="117.134" gradientUnits="userSpaceOnUse">
<stop stop-color="#00D1FF"/>
<stop offset="1" stop-color="#00E5FF"/>
</linearGradient>
<linearGradient id="paint7_linear_4_21" x1="1359.08" y1="760.161" x2="1279.57" y2="881.59" gradientUnits="userSpaceOnUse">
<stop stop-color="#00D1FF"/>
<stop offset="1" stop-color="#00E5FF"/>
</linearGradient>
<linearGradient id="paint8_linear_4_21" x1="464.155" y1="307.374" x2="384.65" y2="428.811" gradientUnits="userSpaceOnUse">
<stop stop-color="#00D1FF"/>
<stop offset="1" stop-color="#00E5FF"/>
</linearGradient>
<linearGradient id="paint9_linear_4_21" x1="290.211" y1="779.064" x2="210.691" y2="900.508" gradientUnits="userSpaceOnUse">
<stop stop-color="#00D1FF"/>
<stop offset="1" stop-color="#00E5FF"/>
</linearGradient>
<linearGradient id="paint10_linear_4_21" x1="643.132" y1="973.843" x2="563.614" y2="1095.28" gradientUnits="userSpaceOnUse">
<stop stop-color="#00D1FF"/>
<stop offset="1" stop-color="#00E5FF"/>
</linearGradient>
<linearGradient id="paint11_linear_4_21" x1="1001.12" y1="838.036" x2="898.958" y2="967.001" gradientUnits="userSpaceOnUse">
<stop stop-color="#00D1FF"/>
<stop offset="1" stop-color="#00E5FF"/>
</linearGradient>
<linearGradient id="paint12_linear_4_21" x1="1180.12" y1="398.14" x2="1077.94" y2="527.114" gradientUnits="userSpaceOnUse">
<stop stop-color="#00D1FF"/>
<stop offset="1" stop-color="#00E5FF"/>
</linearGradient>
<linearGradient id="paint13_linear_4_21" x1="822.132" y1="139.811" x2="719.962" y2="268.778" gradientUnits="userSpaceOnUse">
<stop stop-color="#00D1FF"/>
<stop offset="1" stop-color="#00E5FF"/>
</linearGradient>
<linearGradient id="paint14_linear_4_21" x1="822.132" y1="1087.65" x2="745.217" y2="1207.91" gradientUnits="userSpaceOnUse">
<stop stop-color="#00D1FF"/>
<stop offset="1" stop-color="#00E5FF"/>
</linearGradient>
<linearGradient id="paint15_linear_4_21" x1="643.132" y1="409.242" x2="407.709" y2="492.632" gradientUnits="userSpaceOnUse">
<stop stop-color="#00D1FF"/>
<stop offset="1" stop-color="#00E5FF"/>
</linearGradient>
<linearGradient id="paint16_linear_4_21" x1="464.155" y1="452.391" x2="253.447" y2="559.338" gradientUnits="userSpaceOnUse">
<stop stop-color="#00D1FF"/>
<stop offset="1" stop-color="#00E5FF"/>
</linearGradient>
<linearGradient id="paint17_linear_4_21" x1="290.211" y1="470.026" x2="113.09" y2="594.779" gradientUnits="userSpaceOnUse">
<stop stop-color="#00D1FF"/>
<stop offset="1" stop-color="#00E5FF"/>
</linearGradient>
<linearGradient id="paint18_linear_4_21" x1="115.64" y1="522.823" x2="-12.0066" y2="655.215" gradientUnits="userSpaceOnUse">
<stop stop-color="#00D1FF"/>
<stop offset="1" stop-color="#00E5FF"/>
</linearGradient>
<linearGradient id="paint19_linear_4_21" x1="1001.12" y1="308.651" x2="767.331" y2="394.022" gradientUnits="userSpaceOnUse">
<stop stop-color="#00D1FF"/>
<stop offset="1" stop-color="#00E5FF"/>
</linearGradient>
<linearGradient id="paint20_linear_4_21" x1="1001.12" y1="172.203" x2="917.74" y2="295.248" gradientUnits="userSpaceOnUse">
<stop stop-color="#00D1FF"/>
<stop offset="1" stop-color="#00E5FF"/>
</linearGradient>
<linearGradient id="paint21_linear_4_21" x1="1001.12" y1="995.251" x2="921.596" y2="1116.69" gradientUnits="userSpaceOnUse">
<stop stop-color="#00D1FF"/>
<stop offset="1" stop-color="#00E5FF"/>
</linearGradient>
</defs>
</svg>
