<svg width="1600" height="1600" viewBox="0 0 1600 1600" fill="none" xmlns="http://www.w3.org/2000/svg">
<path d="M1542.67 853.453H1476.69C1465.09 853.453 1453.96 848.844 1445.76 840.641C1437.55 832.438 1432.94 821.307 1432.94 809.703V758.755C1432.94 747.151 1437.55 736.026 1445.76 727.818C1453.96 719.615 1465.09 715.006 1476.69 715.006H1542.67C1554.27 715.006 1565.4 719.615 1573.6 727.818C1581.81 736.026 1586.42 747.151 1586.42 758.755V809.703C1586.42 821.308 1581.81 832.438 1573.6 840.641C1565.4 848.844 1554.27 853.453 1542.67 853.453ZM1476.69 752.505C1473.24 752.505 1470.44 755.302 1470.44 758.755V809.703C1470.44 811.365 1471.1 812.953 1472.27 814.125C1473.44 815.297 1475.03 815.953 1476.69 815.953H1542.67C1544.32 815.953 1545.91 815.297 1547.08 814.125C1548.26 812.953 1548.92 811.365 1548.92 809.703V758.755C1548.92 757.099 1548.26 755.511 1547.08 754.333C1545.91 753.162 1544.32 752.505 1542.67 752.505H1476.69Z" fill="url(#paint0_linear_1_2)"/>
<path d="M1363.6 929.48H1297.63C1286.02 929.48 1274.89 924.871 1266.69 916.667C1258.49 908.464 1253.88 897.334 1253.88 885.73V783.667C1253.88 772.063 1258.49 760.938 1266.69 752.735C1274.89 744.527 1286.02 739.918 1297.63 739.918H1363.6C1375.2 739.918 1386.33 744.527 1394.54 752.735C1402.74 760.938 1407.35 772.063 1407.35 783.667V885.73C1407.35 897.334 1402.74 908.465 1394.54 916.667C1386.33 924.871 1375.2 929.48 1363.6 929.48ZM1297.63 777.413C1294.17 777.413 1291.38 780.21 1291.38 783.663V885.726C1291.38 887.382 1292.03 888.976 1293.2 890.148C1294.38 891.32 1295.97 891.976 1297.63 891.976H1363.6C1365.26 891.976 1366.84 891.32 1368.02 890.148C1369.19 888.976 1369.85 887.382 1369.85 885.726V783.663C1369.85 782.007 1369.19 780.419 1368.02 779.247C1366.84 778.075 1365.26 777.413 1363.6 777.413H1297.63Z" fill="url(#paint1_linear_1_2)"/>
<path d="M1184.64 1074.03H1118.66C1107.05 1074.03 1095.92 1069.42 1087.72 1061.21C1079.52 1053.01 1074.91 1041.88 1074.91 1030.28V806.53C1074.91 794.926 1079.52 783.796 1087.72 775.593C1095.92 767.39 1107.05 762.78 1118.66 762.78H1184.65H1184.64C1196.24 762.796 1207.36 767.411 1215.56 775.614C1223.76 783.812 1228.37 794.931 1228.39 806.531V1030.28C1228.37 1041.88 1223.76 1052.99 1215.56 1061.2C1207.36 1069.4 1196.24 1074.01 1184.64 1074.03L1184.64 1074.03ZM1118.65 800.28H1118.66C1115.2 800.28 1112.41 803.077 1112.41 806.53V1030.28C1112.41 1031.93 1113.06 1033.52 1114.23 1034.69C1115.41 1035.87 1117 1036.53 1118.66 1036.53H1184.65H1184.64C1186.3 1036.53 1187.89 1035.87 1189.06 1034.69C1190.23 1033.52 1190.89 1031.93 1190.89 1030.28V806.53C1190.89 804.874 1190.23 803.28 1189.06 802.108C1187.89 800.936 1186.3 800.28 1184.64 800.28H1118.65Z" fill="url(#paint2_linear_1_2)"/>
<path d="M826.653 1230.52H760.68C749.076 1230.52 737.945 1225.91 729.743 1217.7C721.54 1209.5 716.93 1198.37 716.93 1186.77V762.104C716.93 750.499 721.539 739.369 729.743 731.166C737.946 722.963 749.076 718.354 760.68 718.354H826.653C838.257 718.354 849.383 722.963 857.585 731.166C865.794 739.369 870.403 750.5 870.403 762.104V1186.77C870.403 1198.37 865.794 1209.5 857.585 1217.7C849.382 1225.91 838.257 1230.52 826.653 1230.52ZM760.68 755.853C757.227 755.853 754.43 758.65 754.43 762.103V1186.77C754.43 1188.43 755.086 1190.01 756.258 1191.19C757.43 1192.36 759.019 1193.02 760.68 1193.02H826.653C828.31 1193.02 829.898 1192.36 831.07 1191.19C832.242 1190.01 832.903 1188.43 832.903 1186.77V762.103C832.903 760.442 832.242 758.853 831.07 757.681C829.898 756.51 828.31 755.853 826.653 755.853H760.68Z" fill="url(#paint3_linear_1_2)"/>
<path d="M826.653 668.24H760.68C749.076 668.24 737.945 663.631 729.743 655.422C721.54 647.219 716.93 636.089 716.93 624.49V570.001C716.93 558.397 721.539 547.272 729.743 539.064C737.946 530.861 749.076 526.251 760.68 526.251H826.653C838.257 526.251 849.383 530.86 857.585 539.064C865.794 547.272 870.403 558.397 870.403 570.001V624.537C870.387 636.131 865.773 647.245 857.57 655.444C849.367 663.636 838.248 668.24 826.653 668.24ZM760.68 563.751C757.227 563.751 754.43 566.548 754.43 570.001V624.537C754.43 626.193 755.086 627.787 756.258 628.959C757.43 630.13 759.019 630.787 760.68 630.787H826.653C828.31 630.787 829.898 630.13 831.07 628.959C832.242 627.787 832.903 626.193 832.903 624.537V570.001C832.903 568.344 832.242 566.756 831.07 565.579C829.898 564.407 828.31 563.751 826.653 563.751H760.68Z" fill="url(#paint4_linear_1_2)"/>
<path d="M647.653 565.493H581.68C570.076 565.493 558.945 560.884 550.743 552.676C542.54 544.473 537.93 533.342 537.93 521.744V484.244C537.93 472.639 542.539 461.509 550.743 453.306C558.946 445.103 570.076 440.494 581.68 440.494H647.653C659.257 440.494 670.383 445.103 678.585 453.306C686.794 461.509 691.403 472.64 691.403 484.244V521.744C691.403 533.343 686.794 544.473 678.585 552.676C670.382 560.884 659.257 565.493 647.653 565.493ZM581.68 477.993C578.227 477.993 575.43 480.79 575.43 484.243V521.743C575.43 523.4 576.086 524.988 577.258 526.16C578.43 527.332 580.019 527.993 581.68 527.993H647.653C649.31 527.993 650.898 527.332 652.07 526.16C653.242 524.988 653.903 523.4 653.903 521.743V484.243C653.903 482.582 653.242 480.993 652.07 479.821C650.898 478.65 649.31 477.993 647.653 477.993H581.68Z" fill="url(#paint5_linear_1_2)"/>
<path d="M826.653 306.253H760.68C749.076 306.253 737.945 301.644 729.743 293.441C721.54 285.232 716.93 274.107 716.93 262.503V232.577C716.93 220.978 721.539 209.847 729.743 201.645C737.946 193.436 749.076 188.827 760.68 188.827H826.653C838.257 188.827 849.383 193.436 857.585 201.645C865.794 209.848 870.403 220.978 870.403 232.577V262.503C870.403 274.108 865.794 285.233 857.585 293.441C849.382 301.644 838.257 306.253 826.653 306.253ZM760.68 226.341C757.227 226.341 754.43 229.138 754.43 232.591V262.503C754.43 264.16 755.086 265.748 756.258 266.925C757.43 268.097 759.019 268.753 760.68 268.753H826.653C828.31 268.753 829.898 268.097 831.07 266.925C832.242 265.748 832.903 264.16 832.903 262.503V232.577C832.903 230.92 832.242 229.332 831.07 228.16C829.898 226.988 828.31 226.327 826.653 226.327L760.68 226.341Z" fill="url(#paint6_linear_1_2)"/>
<path d="M1363.6 1070.69H1297.63C1286.02 1070.69 1274.89 1066.08 1266.69 1057.88C1258.49 1049.67 1253.88 1038.55 1253.88 1026.94V997.042C1253.88 985.438 1258.49 974.313 1266.69 966.11C1274.89 957.902 1286.02 953.292 1297.63 953.292H1363.6C1375.2 953.292 1386.33 957.902 1394.54 966.11C1402.74 974.313 1407.35 985.438 1407.35 997.042V1026.94C1407.35 1038.55 1402.74 1049.67 1394.54 1057.88C1386.33 1066.08 1375.2 1070.69 1363.6 1070.69ZM1297.63 990.792C1294.17 990.792 1291.38 993.589 1291.38 997.042V1026.94C1291.38 1028.6 1292.03 1030.19 1293.2 1031.37C1294.38 1032.54 1295.97 1033.19 1297.63 1033.19H1363.6C1365.26 1033.19 1366.84 1032.54 1368.02 1031.37C1369.19 1030.19 1369.85 1028.6 1369.85 1026.94V997.042C1369.85 995.386 1369.19 993.797 1368.02 992.625C1366.84 991.453 1365.26 990.792 1363.6 990.792H1297.63Z" fill="url(#paint7_linear_1_2)"/>
<path d="M468.68 617.907H402.691C391.087 617.907 379.961 613.297 371.753 605.089C363.55 596.886 358.941 585.761 358.941 574.157V544.256C358.941 532.651 363.55 521.526 371.753 513.318C379.962 505.115 391.087 500.506 402.691 500.506H468.68C480.279 500.506 491.409 505.115 499.612 513.318C507.82 521.527 512.43 532.652 512.43 544.256V574.157C512.43 585.761 507.82 596.886 499.612 605.089C491.409 613.297 480.279 617.907 468.68 617.907ZM402.691 538.005C399.238 538.005 396.441 540.802 396.441 544.255V574.157C396.441 575.813 397.097 577.401 398.269 578.573C399.446 579.745 401.034 580.407 402.691 580.407H468.68C470.336 580.407 471.925 579.745 473.097 578.573C474.269 577.401 474.93 575.813 474.93 574.157V544.255C474.93 542.599 474.269 541.011 473.097 539.833C471.925 538.662 470.336 538.005 468.68 538.005H402.691Z" fill="url(#paint8_linear_1_2)"/>
<path d="M294.773 1089.61H228.747C217.142 1089.61 206.017 1085 197.809 1076.8C189.606 1068.59 184.997 1057.46 184.997 1045.86V1015.95C184.997 1004.35 189.606 993.217 197.809 985.014C206.018 976.806 217.143 972.197 228.747 972.197H294.736C306.335 972.197 317.465 976.806 325.668 985.014C333.876 993.217 338.486 1004.35 338.486 1015.95V1045.86C338.486 1057.46 333.882 1068.58 325.684 1076.78C317.486 1084.99 306.366 1089.6 294.772 1089.61L294.773 1089.61ZM228.747 1009.7C225.294 1009.7 222.497 1012.5 222.497 1015.95V1045.86C222.497 1047.52 223.153 1049.11 224.325 1050.28C225.502 1051.45 227.09 1052.11 228.747 1052.11H294.736C296.392 1052.11 297.981 1051.45 299.153 1050.28C300.325 1049.11 300.986 1047.52 300.986 1045.86V1015.95C300.986 1014.29 300.325 1012.7 299.153 1011.53C297.981 1010.36 296.392 1009.7 294.736 1009.7H228.747Z" fill="url(#paint9_linear_1_2)"/>
<path d="M647.653 1284.39H581.68C570.076 1284.39 558.945 1279.78 550.743 1271.57C542.54 1263.37 537.93 1252.24 537.93 1240.64V1210.72C537.93 1199.12 542.539 1188 550.743 1179.79C558.946 1171.58 570.076 1166.98 581.68 1166.98H647.653C659.257 1166.98 670.383 1171.58 678.585 1179.79C686.794 1188 691.403 1199.12 691.403 1210.72V1240.64C691.403 1252.24 686.794 1263.37 678.585 1271.57C670.382 1279.78 659.257 1284.39 647.653 1284.39ZM581.68 1204.47C578.227 1204.47 575.43 1207.27 575.43 1210.72V1240.64C575.43 1242.3 576.086 1243.89 577.258 1245.06C578.43 1246.23 580.019 1246.89 581.68 1246.89H647.653C649.31 1246.89 650.898 1246.23 652.07 1245.06C653.242 1243.89 653.903 1242.3 653.903 1240.64V1210.72C653.903 1209.07 653.242 1207.48 652.07 1206.31C650.898 1205.14 649.31 1204.47 647.653 1204.47H581.68Z" fill="url(#paint10_linear_1_2)"/>
<path d="M1005.64 1174.28H939.667C928.063 1174.28 916.937 1169.67 908.735 1161.47C900.526 1153.26 895.917 1142.13 895.917 1130.53V1075.99C895.917 1064.39 900.526 1053.26 908.735 1045.06C916.938 1036.85 928.063 1032.24 939.667 1032.24H1005.64C1017.24 1032.24 1028.37 1036.85 1036.58 1045.06C1044.78 1053.27 1049.39 1064.39 1049.39 1075.99V1130.53C1049.39 1142.13 1044.78 1153.26 1036.58 1161.47C1028.37 1169.67 1017.24 1174.28 1005.64 1174.28ZM939.667 1069.74C936.214 1069.74 933.417 1072.54 933.417 1075.99V1130.53C933.417 1132.19 934.078 1133.78 935.25 1134.95C936.422 1136.12 938.01 1136.78 939.667 1136.78H1005.64C1007.3 1136.78 1008.89 1136.12 1010.06 1134.95C1011.23 1133.78 1011.89 1132.19 1011.89 1130.53V1075.99C1011.89 1074.34 1011.23 1072.75 1010.06 1071.57C1008.89 1070.4 1007.3 1069.74 1005.64 1069.74H939.667Z" fill="url(#paint11_linear_1_2)"/>
<path d="M1184.64 734.4H1118.66C1107.05 734.4 1095.92 729.791 1087.72 721.582C1079.52 713.379 1074.91 702.254 1074.91 690.65V636.098C1074.91 624.494 1079.52 613.369 1087.72 605.166C1095.92 596.958 1107.05 592.349 1118.66 592.349H1184.65H1184.64C1196.24 592.364 1207.36 596.979 1215.56 605.182C1223.76 613.385 1228.37 624.499 1228.39 636.099V690.651C1228.37 702.25 1223.76 713.365 1215.56 721.569C1207.36 729.772 1196.24 734.386 1184.64 734.402L1184.64 734.4ZM1118.65 629.848H1118.66C1115.2 629.848 1112.41 632.645 1112.41 636.098V690.65C1112.41 692.306 1113.06 693.895 1114.23 695.067C1115.41 696.239 1117 696.9 1118.66 696.9H1184.65H1184.64C1186.3 696.9 1187.89 696.239 1189.06 695.067C1190.23 693.895 1190.89 692.306 1190.89 690.65V636.098C1190.89 634.442 1190.23 632.853 1189.06 631.681C1187.89 630.509 1186.3 629.848 1184.64 629.848H1118.65Z" fill="url(#paint12_linear_1_2)"/>
<path d="M826.653 476.067H760.68C749.076 476.067 737.945 471.457 729.743 463.254C721.54 455.051 716.93 443.921 716.93 432.317V377.77C716.93 366.166 721.539 355.035 729.743 346.833C737.946 338.63 749.076 334.02 760.68 334.02H826.653C838.257 334.02 849.383 338.63 857.585 346.833C865.794 355.036 870.403 366.166 870.403 377.77V432.322V432.317C870.403 443.921 865.794 455.052 857.585 463.254C849.382 471.457 838.257 476.067 826.653 476.067ZM760.68 371.515V371.52C757.227 371.52 754.43 374.317 754.43 377.77V432.322V432.317C754.43 433.978 755.086 435.567 756.258 436.739C757.43 437.91 759.019 438.567 760.68 438.567H826.653C828.31 438.567 829.898 437.91 831.07 436.739C832.242 435.567 832.903 433.978 832.903 432.317V377.77C832.903 376.114 832.242 374.52 831.07 373.348C829.898 372.176 828.31 371.52 826.653 371.52L760.68 371.515Z" fill="url(#paint13_linear_1_2)"/>
<path d="M826.653 1395.33H760.68C749.076 1395.33 737.945 1390.72 729.743 1382.52C721.54 1374.32 716.93 1363.19 716.93 1351.58V1324.41V1324.41C716.93 1312.81 721.539 1301.68 729.743 1293.47C737.946 1285.27 749.076 1280.66 760.68 1280.66H826.653C838.257 1280.66 849.383 1285.27 857.585 1293.47C865.794 1301.68 870.403 1312.81 870.403 1324.41V1351.59V1351.58C870.403 1363.19 865.794 1374.32 857.585 1382.52C849.382 1390.72 838.257 1395.33 826.653 1395.33ZM760.68 1318.16V1318.16C757.227 1318.16 754.43 1320.96 754.43 1324.41V1351.59V1351.58C754.43 1353.24 755.086 1354.83 756.258 1356.01C757.43 1357.18 759.019 1357.83 760.68 1357.83H826.653C828.31 1357.83 829.898 1357.18 831.07 1356.01C832.242 1354.83 832.903 1353.24 832.903 1351.58V1324.41V1324.41C832.903 1322.75 832.242 1321.16 831.07 1319.99C829.898 1318.82 828.31 1318.16 826.653 1318.16L760.68 1318.16Z" fill="url(#paint14_linear_1_2)"/>
<path d="M647.653 1125.56H581.68C570.076 1125.56 558.945 1120.95 550.743 1112.75C542.54 1104.54 537.93 1093.41 537.93 1081.81V663.117C537.93 651.513 542.539 640.387 550.743 632.179C558.946 623.976 570.076 619.367 581.68 619.367H647.653C659.257 619.367 670.383 623.976 678.585 632.179C686.794 640.388 691.403 651.513 691.403 663.117V1081.81C691.403 1093.41 686.794 1104.54 678.585 1112.75C670.382 1120.95 659.257 1125.56 647.653 1125.56ZM581.68 656.867C578.227 656.867 575.43 659.664 575.43 663.117V1081.81C575.43 1083.47 576.086 1085.05 577.258 1086.23C578.43 1087.4 580.019 1088.06 581.68 1088.06H647.653C649.31 1088.06 650.898 1087.4 652.07 1086.23C653.242 1085.05 653.903 1083.47 653.903 1081.81V663.117C653.903 661.46 653.242 659.872 652.07 658.695C650.898 657.523 649.31 656.867 647.653 656.867H581.68Z" fill="url(#paint15_linear_1_2)"/>
<path d="M468.68 1009.13H402.691C391.087 1009.13 379.961 1004.52 371.753 996.321C363.55 988.118 358.941 976.987 358.941 965.383V699.583C358.941 687.979 363.55 676.849 371.753 668.646C379.962 660.443 391.087 655.834 402.691 655.834H468.68C480.279 655.834 491.409 660.443 499.612 668.646C507.82 676.849 512.43 687.979 512.43 699.583V965.383C512.43 976.988 507.82 988.118 499.612 996.321C491.409 1004.52 480.279 1009.13 468.68 1009.13ZM402.691 693.333C399.238 693.333 396.441 696.13 396.441 699.583V965.383C396.441 967.045 397.097 968.633 398.269 969.805C399.446 970.977 401.034 971.633 402.691 971.633H468.68C470.336 971.633 471.925 970.977 473.097 969.805C474.269 968.633 474.93 967.045 474.93 965.383V699.583C474.93 697.927 474.269 696.333 473.097 695.161C471.925 693.99 470.336 693.333 468.68 693.333H402.691Z" fill="url(#paint16_linear_1_2)"/>
<path d="M294.773 923.747H228.747C217.142 923.747 206.017 919.137 197.809 910.934C189.606 902.726 184.997 891.601 184.997 879.997V712.904C184.997 701.299 189.606 690.169 197.809 681.966C206.018 673.763 217.143 669.154 228.747 669.154H294.736C306.335 669.154 317.465 673.763 325.668 681.966C333.876 690.169 338.486 701.3 338.486 712.904V879.997C338.486 891.596 333.882 902.715 325.684 910.918C317.486 919.121 306.366 923.736 294.772 923.746L294.773 923.747ZM228.747 706.653C225.294 706.653 222.497 709.45 222.497 712.903V879.997C222.497 881.653 223.153 883.242 224.325 884.419C225.502 885.59 227.09 886.247 228.747 886.247H294.736C296.392 886.247 297.981 885.59 299.153 884.419C300.325 883.241 300.986 881.653 300.986 879.997V712.903C300.986 711.247 300.325 709.653 299.153 708.481C297.981 707.31 296.392 706.653 294.736 706.653H228.747Z" fill="url(#paint17_linear_1_2)"/>
<path d="M120.161 891.253H54.188C42.5838 891.253 31.4586 886.644 23.2506 878.441C15.0476 870.233 10.4381 859.107 10.4381 847.504V762.129C10.4381 750.525 15.0474 739.399 23.2506 731.191C31.4589 722.988 42.584 718.379 54.188 718.379H120.161C131.765 718.379 142.896 722.988 151.099 731.191C159.302 739.4 163.911 750.525 163.911 762.129V847.504C163.911 859.108 159.302 870.233 151.099 878.441C142.896 886.644 131.765 891.253 120.161 891.253ZM54.188 755.867C50.7349 755.867 47.938 758.664 47.938 762.117V847.502C47.938 849.158 48.5942 850.747 49.7661 851.924C50.9432 853.096 52.5317 853.752 54.188 853.752H120.161C121.818 853.752 123.411 853.096 124.583 851.924C125.755 850.747 126.411 849.158 126.411 847.502V762.127C126.411 760.471 125.755 758.883 124.583 757.705C123.411 756.534 121.818 755.877 120.161 755.877L54.188 755.867Z" fill="url(#paint18_linear_1_2)"/>
<path d="M1005.64 1009.13H939.667C928.063 1009.13 916.937 1004.52 908.735 996.321C900.526 988.118 895.917 976.987 895.917 965.383V561.863C895.917 550.259 900.526 539.129 908.735 530.926C916.938 522.723 928.063 518.114 939.667 518.114H1005.64C1017.24 518.114 1028.37 522.723 1036.58 530.926C1044.78 539.129 1049.39 550.259 1049.39 561.863V965.383C1049.39 976.988 1044.78 988.118 1036.58 996.321C1028.37 1004.52 1017.24 1009.13 1005.64 1009.13ZM939.667 555.613C936.214 555.613 933.417 558.41 933.417 561.863V965.383C933.417 967.045 934.078 968.633 935.25 969.805C936.422 970.977 938.01 971.633 939.667 971.633H1005.64C1007.3 971.633 1008.89 970.977 1010.06 969.805C1011.23 968.633 1011.89 967.045 1011.89 965.383V561.863C1011.89 560.202 1011.23 558.613 1010.06 557.441C1008.89 556.27 1007.3 555.613 1005.64 555.613H939.667Z" fill="url(#paint19_linear_1_2)"/>
<path d="M1005.64 487.013H939.667C928.063 487.013 916.937 482.404 908.735 474.201C900.526 465.998 895.917 454.867 895.917 443.263V409.263C895.917 397.665 900.526 386.534 908.735 378.331C916.938 370.123 928.063 365.514 939.667 365.514H1005.64C1017.24 365.514 1028.37 370.123 1036.58 378.331C1044.78 386.535 1049.39 397.665 1049.39 409.263V443.263C1049.39 454.868 1044.78 465.998 1036.58 474.201C1028.37 482.404 1017.24 487.013 1005.64 487.013ZM939.667 403.013C936.214 403.013 933.417 405.815 933.417 409.263V443.263C933.417 444.925 934.078 446.513 935.25 447.685C936.422 448.857 938.01 449.513 939.667 449.513H1005.64C1007.3 449.513 1008.89 448.857 1010.06 447.685C1011.23 446.513 1011.89 444.925 1011.89 443.263V409.263C1011.89 407.607 1011.23 406.019 1010.06 404.847C1008.89 403.675 1007.3 403.013 1005.64 403.013H939.667Z" fill="url(#paint20_linear_1_2)"/>
<path d="M1005.64 1305.8H939.667C928.063 1305.8 916.937 1301.19 908.735 1292.98C900.526 1284.78 895.917 1273.65 895.917 1262.05V1232.13C895.917 1220.53 900.526 1209.4 908.735 1201.2C916.938 1192.99 928.063 1188.38 939.667 1188.38H1005.64C1017.24 1188.38 1028.37 1192.99 1036.58 1201.2C1044.78 1209.4 1049.39 1220.53 1049.39 1232.13V1262.05C1049.39 1273.65 1044.78 1284.78 1036.58 1292.98C1028.37 1301.19 1017.24 1305.8 1005.64 1305.8ZM939.667 1225.89V1225.88C936.214 1225.88 933.417 1228.68 933.417 1232.13V1262.05C933.417 1263.71 934.078 1265.29 935.25 1266.47C936.422 1267.64 938.01 1268.3 939.667 1268.3H1005.64C1007.3 1268.3 1008.89 1267.64 1010.06 1266.47C1011.23 1265.29 1011.89 1263.71 1011.89 1262.05V1232.13C1011.89 1230.48 1011.23 1228.89 1010.06 1227.72C1008.89 1226.54 1007.3 1225.88 1005.64 1225.88L939.667 1225.89Z" fill="url(#paint21_linear_1_2)"/>
<defs>
<linearGradient id="paint0_linear_1_2" x1="1548.14" y1="708.954" x2="1449.18" y2="837.129" gradientUnits="userSpaceOnUse">
<stop stop-color="#FF2E88"/>
<stop offset="1" stop-color="#87003A"/>
</linearGradient>
<linearGradient id="paint1_linear_1_2" x1="1369.08" y1="731.632" x2="1229.23" y2="863.908" gradientUnits="userSpaceOnUse">
<stop stop-color="#FF2E88"/>
<stop offset="1" stop-color="#87003A"/>
</linearGradient>
<linearGradient id="paint2_linear_1_2" x1="1190.12" y1="749.176" x2="991.168" y2="863.792" gradientUnits="userSpaceOnUse">
<stop stop-color="#FF2E88"/>
<stop offset="1" stop-color="#87003A"/>
</linearGradient>
<linearGradient id="paint3_linear_1_2" x1="832.132" y1="695.967" x2="596.099" y2="778.599" gradientUnits="userSpaceOnUse">
<stop stop-color="#FF2E88"/>
<stop offset="1" stop-color="#87003A"/>
</linearGradient>
<linearGradient id="paint4_linear_1_2" x1="832.132" y1="520.045" x2="730.012" y2="649" gradientUnits="userSpaceOnUse">
<stop stop-color="#FF2E88"/>
<stop offset="1" stop-color="#87003A"/>
</linearGradient>
<linearGradient id="paint5_linear_1_2" x1="653.132" y1="435.03" x2="566.474" y2="559.334" gradientUnits="userSpaceOnUse">
<stop stop-color="#FF2E88"/>
<stop offset="1" stop-color="#87003A"/>
</linearGradient>
<linearGradient id="paint6_linear_1_2" x1="832.132" y1="183.694" x2="752.6" y2="305.134" gradientUnits="userSpaceOnUse">
<stop stop-color="#FF2E88"/>
<stop offset="1" stop-color="#87003A"/>
</linearGradient>
<linearGradient id="paint7_linear_1_2" x1="1369.08" y1="948.161" x2="1289.57" y2="1069.59" gradientUnits="userSpaceOnUse">
<stop stop-color="#FF2E88"/>
<stop offset="1" stop-color="#87003A"/>
</linearGradient>
<linearGradient id="paint8_linear_1_2" x1="474.155" y1="495.374" x2="394.65" y2="616.811" gradientUnits="userSpaceOnUse">
<stop stop-color="#FF2E88"/>
<stop offset="1" stop-color="#87003A"/>
</linearGradient>
<linearGradient id="paint9_linear_1_2" x1="300.211" y1="967.064" x2="220.691" y2="1088.51" gradientUnits="userSpaceOnUse">
<stop stop-color="#FF2E88"/>
<stop offset="1" stop-color="#87003A"/>
</linearGradient>
<linearGradient id="paint10_linear_1_2" x1="653.132" y1="1161.84" x2="573.614" y2="1283.28" gradientUnits="userSpaceOnUse">
<stop stop-color="#FF2E88"/>
<stop offset="1" stop-color="#87003A"/>
</linearGradient>
<linearGradient id="paint11_linear_1_2" x1="1011.12" y1="1026.04" x2="908.958" y2="1155" gradientUnits="userSpaceOnUse">
<stop stop-color="#FF2E88"/>
<stop offset="1" stop-color="#87003A"/>
</linearGradient>
<linearGradient id="paint12_linear_1_2" x1="1190.12" y1="586.14" x2="1087.94" y2="715.114" gradientUnits="userSpaceOnUse">
<stop stop-color="#FF2E88"/>
<stop offset="1" stop-color="#87003A"/>
</linearGradient>
<linearGradient id="paint13_linear_1_2" x1="832.132" y1="327.811" x2="729.962" y2="456.778" gradientUnits="userSpaceOnUse">
<stop stop-color="#FF2E88"/>
<stop offset="1" stop-color="#87003A"/>
</linearGradient>
<linearGradient id="paint14_linear_1_2" x1="832.132" y1="1275.65" x2="755.217" y2="1395.91" gradientUnits="userSpaceOnUse">
<stop stop-color="#FF2E88"/>
<stop offset="1" stop-color="#87003A"/>
</linearGradient>
<linearGradient id="paint15_linear_1_2" x1="653.132" y1="597.242" x2="417.709" y2="680.632" gradientUnits="userSpaceOnUse">
<stop stop-color="#FF2E88"/>
<stop offset="1" stop-color="#87003A"/>
</linearGradient>
<linearGradient id="paint16_linear_1_2" x1="474.155" y1="640.391" x2="263.447" y2="747.338" gradientUnits="userSpaceOnUse">
<stop stop-color="#FF2E88"/>
<stop offset="1" stop-color="#87003A"/>
</linearGradient>
<linearGradient id="paint17_linear_1_2" x1="300.211" y1="658.026" x2="123.09" y2="782.779" gradientUnits="userSpaceOnUse">
<stop stop-color="#FF2E88"/>
<stop offset="1" stop-color="#87003A"/>
</linearGradient>
<linearGradient id="paint18_linear_1_2" x1="125.64" y1="710.823" x2="-2.00662" y2="843.215" gradientUnits="userSpaceOnUse">
<stop stop-color="#FF2E88"/>
<stop offset="1" stop-color="#87003A"/>
</linearGradient>
<linearGradient id="paint19_linear_1_2" x1="1011.12" y1="496.651" x2="777.331" y2="582.022" gradientUnits="userSpaceOnUse">
<stop stop-color="#FF2E88"/>
<stop offset="1" stop-color="#87003A"/>
</linearGradient>
<linearGradient id="paint20_linear_1_2" x1="1011.12" y1="360.203" x2="927.74" y2="483.248" gradientUnits="userSpaceOnUse">
<stop stop-color="#FF2E88"/>
<stop offset="1" stop-color="#87003A"/>
</linearGradient>
<linearGradient id="paint21_linear_1_2" x1="1011.12" y1="1183.25" x2="931.596" y2="1304.69" gradientUnits="userSpaceOnUse">
<stop stop-color="#FF2E88"/>
<stop offset="1" stop-color="#87003A"/>
</linearGradient>
</defs>
</svg>
